<svg width="25" height="25" viewBox="0 0 25 25" fill="none" xmlns="http://www.w3.org/2000/svg">
<path d="M21.8333 0.25H3.16667C1.55667 0.25 0.25 1.55667 0.25 3.16667V21.8333C0.25 23.4433 1.55667 24.75 3.16667 24.75H21.8333C23.4433 24.75 24.75 23.4433 24.75 21.8333V3.16667C24.75 1.55667 23.4433 0.25 21.8333 0.25ZM7.83334 9.58334V20.6667H4.33333V9.58334H7.83334ZM4.33333 6.3575C4.33333 5.54083 5.03333 4.91667 6.08333 4.91667C7.13334 4.91667 7.7925 5.54083 7.83334 6.3575C7.83334 7.17417 7.18 7.83334 6.08333 7.83334C5.03333 7.83334 4.33333 7.17417 4.33333 6.3575ZM20.6667 20.6667H17.1667C17.1667 20.6667 17.1667 15.265 17.1667 14.8333C17.1667 13.6667 16.5833 12.5 15.125 12.4767H15.0783C13.6667 12.4767 13.0833 13.6783 13.0833 14.8333C13.0833 15.3642 13.0833 20.6667 13.0833 20.6667H9.58334V9.58334H13.0833V11.0767C13.0833 11.0767 14.2092 9.58334 16.4725 9.58334C18.7883 9.58334 20.6667 11.1758 20.6667 14.4017V20.6667Z" fill="black"/>
</svg>
